<svg width="330" height="330" viewBox="0 0 330 330" fill="none" xmlns="http://www.w3.org/2000/svg">
<g clip-path="url(#clip0_21_9)">
<mask id="mask0_21_9" style="mask-type:luminance" maskUnits="userSpaceOnUse" x="0" y="0" width="330" height="330">
<path d="M0 0H330V330H0V0Z" fill="white"/>
</mask>
<g mask="url(#mask0_21_9)">
<path d="M165 330C256.127 330 330 256.356 330 165.511C330 74.667 256.127 1.02299 165 1.02299C73.873 1.02299 0 74.667 0 165.511C0 256.356 73.873 330 165 330Z" fill="#F7E6FF"/>
<path d="M237.348 33.677H92.651V128.762H237.348V33.677ZM252.079 128.758H325.875C317.092 90.6856 295.048 56.9813 263.686 33.677H252.079V128.758Z" fill="#F7E6FF"/>
<path d="M284.86 167.475L296.781 128.024L272.898 128.56C268.266 128.663 263.663 127.808 259.376 126.05C255.09 124.292 251.213 121.668 247.987 118.342L232.724 104.107C232.724 104.107 228.455 102.708 227.609 105.848C223.517 121.069 217.321 165.718 284.844 167.475" fill="#2C83FC"/>
<path d="M4.125 128.758H77.921V33.677H66.313C34.9517 56.9814 12.9073 90.6858 4.125 128.758Z" fill="#F7E6FF"/>
<path d="M165 118.586C186.244 118.586 203.465 101.417 203.465 80.24C203.465 59.062 186.244 41.894 165 41.894C143.756 41.894 126.534 59.062 126.534 80.24C126.534 101.417 143.756 118.586 165 118.586Z" fill="#A02CFC"/>
<path d="M140.431 80.24C140.442 77.8017 141.417 75.4667 143.144 73.7452C144.871 72.0238 147.209 71.0559 149.647 71.053H161.931V64.932H149.647C146.588 64.8813 143.583 65.7489 141.022 67.4227C138.46 69.0965 136.459 71.4997 135.277 74.322C134.095 77.1439 133.785 80.2552 134.388 83.2547C134.991 86.2541 136.479 89.0041 138.66 91.15C140.108 92.5745 141.826 93.6966 143.712 94.4508C145.598 95.205 147.616 95.5763 149.647 95.543H161.931V89.422H149.647C147.209 89.4194 144.872 88.4522 143.145 86.7318C141.418 85.0114 140.443 82.6775 140.431 80.24ZM180.353 64.932H168.069V71.053H180.353C181.884 71.0199 183.399 71.3703 184.761 72.0722C186.122 72.7742 187.286 73.8054 188.147 75.0721C189.008 76.3387 189.538 77.8006 189.69 79.3246C189.842 80.8486 189.61 82.3864 189.016 83.798C188.302 85.496 187.095 86.9403 185.55 87.9432C184.005 88.9461 182.194 89.4613 180.353 89.422H168.069V95.543H180.353C182.386 95.5797 184.406 95.211 186.296 94.4583C188.185 93.7057 189.905 92.5841 191.356 91.1593C192.807 89.7344 193.959 88.0347 194.746 86.1595C195.532 84.2842 195.938 82.2711 195.938 80.2375C195.938 78.2039 195.532 76.1908 194.746 74.3155C193.959 72.4403 192.807 70.7406 191.356 69.3157C189.905 67.8908 188.185 66.7693 186.296 66.0166C184.406 65.264 182.386 64.8952 180.353 64.932Z" fill="white"/>
<path d="M177.284 77.174H152.716V83.296H177.284V77.174ZM263.868 195.009H66.132V203.511H263.868V195.009ZM219.112 206.567H213.444L240.376 311.87C242.052 311.01 243.713 310.122 245.359 309.206L219.112 206.567ZM178.526 313.186L205.788 206.567H200.125L172.858 313.186H178.526ZM151.474 313.186L124.212 206.567H129.876L157.142 313.186H151.474ZM84.64 309.206C86.2874 310.12 87.9489 311.008 89.624 311.87L116.556 206.567H110.888L84.64 309.206Z" fill="white"/>
<path d="M244.365 190.827H202.389L193.417 151.412L189.164 152.307L198.652 194.007C198.717 194.292 198.877 194.546 199.106 194.728C199.334 194.91 199.618 195.009 199.91 195.009H244.365V190.827Z" fill="#E4C2FF"/>
<path d="M204.105 193.594C204.003 193.59 203.904 193.564 203.813 193.517C203.723 193.471 203.644 193.405 203.582 193.324C203.521 193.243 203.477 193.15 203.456 193.05C203.434 192.951 203.435 192.848 203.458 192.749C203.497 192.584 203.595 192.44 203.734 192.342C203.872 192.245 204.041 192.202 204.21 192.22C204.378 192.239 204.533 192.318 204.647 192.444C204.761 192.569 204.825 192.732 204.827 192.901C204.823 193.089 204.745 193.267 204.61 193.398C204.474 193.527 204.293 193.598 204.105 193.594ZM206.378 193.594C206.276 193.59 206.177 193.564 206.086 193.517C205.996 193.471 205.917 193.405 205.855 193.324C205.794 193.243 205.75 193.15 205.729 193.05C205.707 192.951 205.708 192.848 205.731 192.749C205.77 192.584 205.868 192.44 206.007 192.342C206.145 192.245 206.314 192.202 206.483 192.22C206.651 192.239 206.806 192.318 206.92 192.444C207.034 192.569 207.098 192.732 207.1 192.901C207.096 193.089 207.018 193.267 206.883 193.398C206.747 193.527 206.566 193.598 206.378 193.594Z" fill="#EB9AFF"/>
<path d="M85.635 190.827H127.611L136.583 151.412L140.836 152.307L131.348 194.007C131.283 194.292 131.124 194.547 130.895 194.729C130.666 194.911 130.382 195.01 130.09 195.009H85.635V190.827Z" fill="#E4C2FF"/>
<path d="M125.173 192.901C125.169 192.722 125.231 192.548 125.348 192.412C125.464 192.277 125.627 192.189 125.805 192.167C125.982 192.144 126.162 192.188 126.309 192.29C126.456 192.393 126.559 192.546 126.6 192.72C126.631 192.861 126.618 193.008 126.564 193.141C126.511 193.275 126.419 193.39 126.3 193.471C126.18 193.552 126.039 193.595 125.895 193.594C125.802 193.596 125.709 193.58 125.623 193.547C125.536 193.513 125.457 193.463 125.389 193.398C125.322 193.334 125.269 193.257 125.231 193.171C125.194 193.086 125.174 192.994 125.173 192.901ZM122.9 192.901C122.894 192.721 122.956 192.546 123.073 192.409C123.19 192.272 123.353 192.184 123.532 192.162C123.71 192.139 123.891 192.184 124.038 192.287C124.185 192.39 124.288 192.545 124.328 192.72C124.351 192.825 124.35 192.934 124.325 193.039C124.3 193.144 124.252 193.242 124.184 193.326C124.116 193.409 124.031 193.477 123.933 193.524C123.836 193.57 123.73 193.594 123.622 193.594C123.435 193.597 123.254 193.526 123.118 193.397C122.983 193.267 122.905 193.089 122.9 192.901Z" fill="#EB9AFF"/>
<path d="M297.705 95.213C292.652 95.213 288.552 99.165 288.552 104.041V116.77C288.57 117.44 288.852 118.076 289.336 118.54C289.82 119.003 290.468 119.257 291.138 119.245H293.795L293.906 126.39H307.391L304.59 101.165C304.377 99.4979 303.557 97.9678 302.287 96.8669C301.017 95.7661 299.386 95.1716 297.705 95.197V95.213Z" fill="#936D61"/>
<path d="M305.761 103.871L300.861 97.098C300.444 96.5243 300.212 95.8363 300.198 95.1269C300.184 94.4175 300.388 93.7209 300.782 93.131C301.044 92.74 301.382 92.405 301.776 92.148C302.583 91.6064 303.567 91.3959 304.525 91.5603C305.482 91.7247 306.34 92.2513 306.92 93.031L311.817 99.804C312.093 100.185 312.289 100.619 312.393 101.078C312.496 101.537 312.506 102.013 312.421 102.476C312.335 102.939 312.155 103.379 311.894 103.771C311.633 104.162 311.295 104.497 310.901 104.754C310.095 105.295 309.111 105.506 308.154 105.341C307.197 105.177 306.34 104.65 305.761 103.871Z" fill="#52332D"/>
<path d="M293.77 119.262H296.757L293.799 121.061L293.77 119.262Z" fill="#734A3F"/>
<path d="M289.163 110.517H288.544C288.385 110.523 288.228 110.481 288.093 110.396C287.958 110.312 287.852 110.189 287.787 110.044C287.744 109.947 287.721 109.843 287.719 109.737C287.721 109.563 287.78 109.394 287.889 109.257C287.997 109.121 288.148 109.024 288.317 108.983L289.101 108.776L289.163 110.517Z" fill="#936D61"/>
<path d="M300.197 94.978C300.183 95.538 300.307 96.093 300.556 96.595C301.667 97.2074 302.601 98.0952 303.27 99.173L305.984 104.152C306.559 104.796 307.341 105.219 308.195 105.348L304.483 98.546C303.486 96.9169 301.98 95.6626 300.197 94.978Z" fill="#422622"/>
<path d="M314.614 118.548L303.889 98.864C303.889 98.864 301.826 95.213 297.701 95.213C296.387 95.207 295.086 95.4805 293.886 96.0153C292.686 96.5501 291.612 97.334 290.738 98.315C291.258 105.802 295.024 116.82 306.475 119.064L307.11 123.968H311.235C314.115 123.968 315.975 121.007 314.614 118.548Z" fill="#52332D"/>
<path d="M306.487 119.064L307.123 123.969H311.248C312.24 123.985 313.198 123.611 313.916 122.926C314.634 122.241 315.054 121.302 315.084 120.31C313.714 120.145 308.649 119.505 306.487 119.064ZM314.403 118.156L313.949 117.331C303.691 117.249 298.567 109.337 296.059 102.564C296.811 104.027 297.687 105.422 298.679 106.734C302.296 111.474 306.842 113.953 312.209 114.159L311.747 113.314C301.022 112.625 296.183 102.246 294.215 95.902C293.947 96.009 293.687 96.129 293.432 96.257C294.026 99.26 295.494 104.886 298.695 109.634C302.531 115.306 307.708 118.177 314.09 118.177L314.403 118.156Z" fill="#422622"/>
<path d="M288.552 114.262C288.916 114.285 289.276 114.18 289.571 113.967C289.866 113.753 290.077 113.443 290.169 113.091H288.552V114.122" fill="#734A3F"/>
<path d="M289.686 107.699C289.748 107.7 289.81 107.689 289.868 107.666C289.926 107.643 289.979 107.609 290.024 107.566C290.069 107.523 290.105 107.471 290.13 107.414C290.155 107.357 290.168 107.295 290.169 107.233C290.167 107.107 290.114 106.987 290.024 106.9C289.933 106.813 289.812 106.765 289.686 106.767C289.56 106.765 289.439 106.813 289.349 106.9C289.258 106.988 289.206 107.107 289.204 107.233C289.204 107.491 289.42 107.699 289.686 107.699Z" fill="#422622"/>
<path d="M60.497 292.805C64.4096 296.001 68.4658 299.017 72.653 301.843L78.131 288.036H61.12C60.897 289.678 60.69 291.267 60.497 292.805ZM33.965 96.27C39.01 95.91 43.395 99.57 43.766 104.42L44.435 113.219L44.731 117.113C44.7609 117.614 44.6409 118.113 44.3862 118.545C44.1315 118.977 43.7537 119.324 43.301 119.541C43.001 119.685 42.676 119.768 42.343 119.786L39.691 119.976L40.103 127.108L26.656 128.069L27.551 102.713C27.6375 101.037 28.3402 99.453 29.5242 98.2642C30.7082 97.0754 32.2898 96.3662 33.965 96.273V96.27ZM93.963 186.38L102.477 181.293L111.181 183.414C112.542 183.744 113.845 184.283 115.042 185.01L117.773 186.66C118.304 186.982 118.72 187.464 118.959 188.037C119.198 188.61 119.25 189.245 119.105 189.849L118.874 190.822H101.685C99.44 190.841 97.2564 190.09 95.498 188.694C94.681 188.03 94.05 187.275 93.963 186.38Z" fill="#FFCAB9"/>
<path d="M90.77 214.987L2.62 194.844C5.08375 208.502 9.28381 221.789 15.118 234.382C15.312 234.407 15.501 234.44 15.695 234.461L72.925 240.236C66.875 253.469 63.219 272.782 61.12 288.053L80.986 288.238L100.299 232.551C102.869 225.151 98.542 217.173 90.77 214.987Z" fill="#E4C2FF"/>
<path d="M24.75 105.266C24.081 101.096 27.051 97.189 31.378 96.546L35.875 95.873C40.202 95.226 44.682 98.023 45.362 102.193L24.75 105.266Z" fill="#FF6530"/>
<path d="M27.477 104.858L27.143 114.551L34.373 110.728L34.613 103.793L27.477 104.858Z" fill="#FF835A"/>
<path d="M76.762 232.613C76.6668 232.559 76.5542 232.546 76.449 232.575C76.3438 232.605 76.2546 232.675 76.201 232.77L72.026 240.129L72.921 240.219L76.919 233.174C76.9726 233.079 76.9861 232.966 76.9567 232.861C76.9272 232.756 76.8572 232.667 76.762 232.613Z" fill="#EB9AFF"/>
<path d="M39.69 119.976L36.712 120.186L39.802 121.766L39.691 119.976H39.69Z" fill="#FFA78B"/>
<path d="M86.031 283.379H58.081V284.204H86.031V283.379Z" fill="#F7E6FF"/>
<path d="M23.966 101.421L23.236 101.034C26.582 94.702 32.724 96.438 32.802 96.459L32.588 97.251C32.344 97.181 26.99 95.701 23.966 101.421Z" fill="#FF6530"/>
<path d="M44.014 111.519L44.628 111.445C44.7319 111.434 44.8327 111.403 44.9245 111.353C45.0162 111.303 45.0973 111.236 45.1629 111.154C45.2285 111.073 45.2774 110.979 45.3067 110.879C45.3361 110.779 45.3454 110.674 45.334 110.57C45.3085 110.397 45.2273 110.238 45.1027 110.116C44.9781 109.994 44.817 109.916 44.644 109.894L43.82 109.787L44.014 111.519Z" fill="#FFCAB9"/>
<path d="M42.615 108.442C42.7408 108.443 42.8618 108.394 42.9514 108.305C43.041 108.217 43.0919 108.097 43.093 107.971C43.0896 107.845 43.0364 107.726 42.9451 107.639C42.8538 107.553 42.7318 107.506 42.606 107.509C42.4802 107.508 42.3592 107.557 42.2696 107.646C42.18 107.734 42.129 107.854 42.128 107.98C42.131 108.238 42.348 108.444 42.615 108.442Z" fill="#422622"/>
<path d="M44.038 113.495C44.15 114.048 44.038 114.498 43.762 114.502C43.486 114.506 43.189 114.056 43.073 113.503C43.053 113.403 43.041 113.301 43.036 113.198H43.952C43.99 113.294 44.019 113.394 44.039 113.495H44.038Z" fill="#FFA78B"/>
<path d="M41.737 111.412C40.404 111.412 39.348 109.964 39.327 108.112C39.3055 107.298 39.5254 106.495 39.959 105.806C40.1368 105.5 40.3879 105.244 40.6896 105.06C40.9912 104.875 41.334 104.769 41.687 104.75C43.02 104.75 44.076 106.202 44.092 108.05C44.092 109.919 43.077 111.396 41.732 111.408L41.737 111.412ZM41.707 105.563C41.4886 105.582 41.2784 105.655 41.095 105.776C40.9116 105.896 40.7608 106.059 40.656 106.252C40.316 106.798 40.1413 107.432 40.153 108.075C40.153 109.432 40.891 110.55 41.737 110.55C42.587 110.55 43.296 109.387 43.279 108.026C43.263 106.664 42.552 105.563 41.707 105.563Z" fill="white"/>
<path d="M28.94 112.922C28.8858 112.922 28.8321 112.912 28.782 112.891C28.7319 112.871 28.6864 112.84 28.6481 112.802C28.6098 112.764 28.5795 112.718 28.5588 112.668C28.5382 112.618 28.5278 112.564 28.528 112.51V111.565C28.5281 111.148 28.6723 110.744 28.9362 110.422C29.2001 110.099 29.5675 109.878 29.976 109.795L39.748 107.844C39.8573 107.823 39.9704 107.847 40.0627 107.909C40.1549 107.971 40.219 108.067 40.241 108.176C40.2619 108.285 40.2387 108.399 40.1765 108.491C40.1144 108.583 40.0182 108.647 39.909 108.669L30.137 110.62C29.9159 110.666 29.7173 110.786 29.5746 110.961C29.4318 111.136 29.3536 111.355 29.353 111.581V112.526C29.3491 112.633 29.304 112.733 29.2271 112.807C29.1502 112.881 29.0466 112.922 28.94 112.922Z" fill="white"/>
<path d="M33.512 114.257C34.694 114.162 35.526 112.501 35.37 110.546C35.213 108.592 34.128 107.084 32.946 107.178C31.763 107.273 30.932 108.934 31.088 110.889C31.244 112.844 32.33 114.351 33.512 114.257Z" fill="#FFCAB9"/>
<path d="M92.248 313.187C114.905 324.249 139.787 329.999 165 329.999C190.214 329.999 215.096 324.249 237.753 313.187H92.248ZM239.502 214.986C231.73 217.173 227.403 225.15 229.969 232.551L253.894 304.111C260.669 299.783 267.119 294.967 273.195 289.702C269.808 273.846 262.47 251.451 257.342 240.202L314.577 234.427L314.865 234.386C320.698 221.802 324.901 208.525 327.372 194.877L239.502 214.986Z" fill="#E4C2FF"/>
<path d="M317.65 144.321C313.838 143.426 309.874 140.803 306.352 137.8" stroke="#FEA400" stroke-width="3.12" stroke-miterlimit="10"/>
<path d="M325.681 167.999L315.735 136.039L286.832 138.872L285.367 144.672C281.957 158.181 282.107 172.344 285.804 185.778L301.389 235.785L315.092 233.921C323.151 216.382 328.032 197.552 329.509 178.307C328.048 174.942 326.77 171.501 325.681 167.999ZM307.148 123.969H293.82C293.004 123.969 292.343 124.63 292.343 125.445V128.329C292.343 129.144 293.004 129.806 293.82 129.806H307.148C307.963 129.806 308.625 129.144 308.625 128.329V125.445C308.625 124.63 307.963 123.969 307.148 123.969Z" fill="#2C83FC"/>
<path d="M273.191 289.687C273.107 289.29 273.02 288.894 272.931 288.499C259.194 278.549 248.531 256.889 248.416 256.645C248.367 256.547 248.282 256.472 248.179 256.436C248.102 256.408 248.017 256.403 247.937 256.423C247.857 256.444 247.785 256.488 247.731 256.549C247.676 256.611 247.641 256.688 247.631 256.77C247.621 256.852 247.635 256.935 247.673 257.008C247.793 257.256 258.914 279.848 273.191 289.687Z" fill="#EB9AFF"/>
<path d="M317.65 165.709C317.65 165.709 310.773 190.2 291.225 203.169L289.163 196.498L317.65 165.709Z" fill="#00833B"/>
<path d="M301.389 235.785L286.205 204.315L291.225 203.168L301.389 235.785Z" fill="#EB9AFF"/>
<path d="M314.605 201.052C314.519 201.052 305.766 200.067 291.208 203.115L291.452 203.903C305.819 200.908 314.424 201.861 314.511 201.869C314.62 201.881 314.73 201.85 314.816 201.782C314.903 201.713 314.958 201.613 314.971 201.504C314.983 201.395 314.951 201.285 314.883 201.199C314.814 201.112 314.714 201.057 314.605 201.044V201.052Z" fill="#00833B"/>
<path d="M271.478 241.036L271.862 244.212C271.93 244.79 272.225 245.317 272.681 245.678C273.137 246.039 273.718 246.205 274.296 246.139L311.099 242.014C312.504 239.348 313.835 236.643 315.092 233.904L273.43 238.561C273.138 238.593 272.856 238.683 272.599 238.825C272.343 238.967 272.117 239.159 271.935 239.389C271.753 239.62 271.619 239.884 271.541 240.167C271.462 240.449 271.441 240.745 271.478 241.036ZM58.517 241.036L58.133 244.212C58.0629 244.791 57.7662 245.319 57.3078 245.68C56.8494 246.042 56.2666 246.206 55.687 246.139L18.892 242.014C17.4873 239.346 16.1535 236.642 14.892 233.904L56.554 238.561C56.8466 238.592 57.1301 238.68 57.388 238.822C57.6458 238.964 57.8728 239.155 58.0556 239.386C58.2384 239.616 58.3734 239.881 58.4526 240.164C58.5318 240.448 58.5537 240.744 58.517 241.036Z" fill="#EB9AFF"/>
<path d="M70.71 173.308C67.8804 172.597 65.2322 171.299 62.9375 169.497C60.6428 167.696 58.753 165.431 57.391 162.851L42.438 134.512C41.8299 133.301 41.0594 132.178 40.148 131.175L42.438 131.814L41.96 127.112L26.812 124.162C26.6426 124.129 26.4669 124.152 26.3115 124.227C26.1562 124.302 26.0296 124.426 25.951 124.58C25.8986 124.682 25.8689 124.794 25.864 124.909L25.802 126.39C23.2346 126.849 20.8363 127.985 18.855 129.681C16.8737 131.378 15.3813 133.572 14.532 136.038L14.475 136.22C14.45 136.298 14.425 136.372 14.405 136.451L0.679993 180.555C1.11733 185.344 1.76395 190.112 2.61799 194.844L39.644 203.305L44.467 185.778C44.934 184.07 45.347 182.354 45.704 180.63L50.489 184.437C54.654 187.733 59.8259 189.497 65.137 189.432H95.893L102.493 181.29L70.71 173.308Z" fill="#FFCAB9"/>
<path d="M100.44 181.665V180.794L99.94 180.667V181.665H93.015V178.926L92.515 178.802V181.665H85.59V177.061L85.09 176.933V181.665H78.165V175.197L77.665 175.069V181.669H70.74V174.743H76.362L74.365 174.24H70.74V173.328L70.661 173.308C70.517 173.275 70.381 173.229 70.249 173.192V174.24H63.315V169.814C63.1448 169.692 62.9781 169.565 62.815 169.434V174.24H55.89V167.318H60.518C60.365 167.153 60.221 166.984 60.072 166.815H55.89V160.099L55.39 159.146V159.39H48.465V152.468H51.864L51.6 151.965H48.465V146.025L47.961 145.072V151.961H41.04V145.043H47.945L47.681 144.54H41.04V137.618H44.026L43.762 137.115H41.04V132.338C40.8794 132.118 40.7113 131.904 40.536 131.695V137.115H33.615V130.189H40.536V131.299L41.04 131.443V130.205H42.224L42.17 129.706H41.04V126.963L40.536 126.864V129.706H33.615V125.499L33.111 125.4V129.69H26.19V124.278C26.0826 124.346 25.9931 124.439 25.9293 124.549C25.8654 124.658 25.8289 124.782 25.823 124.909L25.761 126.39H25.686V129.69H18.806C18.616 129.851 18.435 130.02 18.253 130.189V137.115H14.128L13.971 137.618H18.261V144.54H11.84L11.687 145.043H18.262V151.965H11.34V146.149L10.836 147.761V151.965H9.53001L9.37301 152.468H10.837V159.39H7.22001L7.06301 159.893H10.837V166.815H4.91001L4.75301 167.318H10.837V174.24H3.91501V170.012L3.41101 171.625V174.24H2.58601L2.43001 174.743H3.41101V181.665H0.747009L0.797009 182.168H3.41001V189.09H1.65001C1.65001 189.259 1.69501 189.424 1.72001 189.593H3.41101V195.038L3.91501 195.154V189.593H10.836V196.515H9.87601L12.074 197.018H18.261V198.433L18.765 198.544V197.018H25.686V200.128L26.19 200.244V197.018H33.111V201.824L33.615 201.939V197.018H40.536V199.877L41.04 198.053V197.018H41.324L41.464 196.515H41.052V189.593H43.379L43.519 189.09H41.044V182.168H45.314L45.424 181.665H41.04V174.743H47.961V181.665H46.955L47.582 182.168H47.962V182.469L48.465 182.882V182.18H55.39V187.444C55.555 187.518 55.725 187.588 55.89 187.654V182.168H62.815V189.09H60.877C62.267 189.332 63.677 189.447 65.088 189.432H95.84L96.12 189.086H93.015V182.168H99.94V184.387L100.44 183.764V182.185H101.722L102.135 181.681L100.44 181.665ZM10.836 185.212V189.086H3.91501V182.168H10.836V185.212ZM10.836 177.787V181.661H3.91501V174.743H10.836V177.787ZM18.261 192.637V196.511H11.34V189.593H18.261V192.637ZM18.261 185.212V189.086H11.34V182.168H18.261V185.212ZM18.261 177.787V181.661H11.34V174.743H18.261V177.787ZM18.261 170.362V174.236H11.34V167.318H18.261V170.362ZM18.261 162.937V166.811H11.34V159.893H18.261V162.937ZM18.261 155.512V159.386H11.34V152.468H18.261V155.512ZM25.686 192.637V196.511H18.765V189.593H25.686V192.637ZM25.686 185.212V189.086H18.765V182.168H25.686V185.212ZM25.686 177.787V181.661H18.765V174.743H25.686V177.787ZM25.686 170.362V174.236H18.765V167.318H25.686V170.362ZM25.686 162.937V166.811H18.765V159.893H25.686V162.937ZM25.686 155.512V159.386H18.765V152.468H25.686V155.512ZM25.686 148.087V151.961H18.765V145.043H25.686V148.087ZM25.686 140.662V144.536H18.765V137.618H25.686V140.662ZM25.686 133.237V137.111H18.765V130.189H25.686V133.237ZM33.111 192.637V196.511H26.19V189.593H33.111V192.637ZM33.111 185.212V189.086H26.19V182.168H33.111V185.212ZM33.111 177.787V181.661H26.19V174.743H33.111V177.787ZM33.111 170.362V174.236H26.19V167.318H33.111V170.362ZM33.111 162.937V166.811H26.19V159.893H33.111V162.937ZM33.111 155.512V159.386H26.19V152.468H33.111V155.512ZM33.111 148.087V151.961H26.19V145.043H33.111V148.087ZM33.111 140.662V144.536H26.19V137.618H33.111V140.662ZM33.111 133.237V137.111H26.19V130.189H33.111V133.237ZM40.536 192.637V196.511H33.615V189.593H40.536V192.637ZM40.536 185.212V189.086H33.615V182.168H40.536V185.212ZM40.536 177.787V181.661H33.615V174.743H40.536V177.787ZM40.536 170.362V174.236H33.615V167.318H40.536V170.362ZM40.536 162.937V166.811H33.615V159.893H40.536V162.937ZM40.536 155.512V159.386H33.615V152.468H40.536V155.512ZM40.536 148.087V151.961H33.615V145.043H40.536V148.087ZM40.536 140.662V144.536H33.615V137.618H40.536V140.662ZM47.961 170.362V174.236H41.04V167.318H47.961V170.362ZM47.961 162.937V166.811H41.04V159.893H47.961V162.937ZM47.961 155.512V159.386H41.04V152.468H47.961V155.512ZM55.386 177.787V181.661H48.465V174.743H55.39L55.386 177.787ZM55.386 170.362V174.236H48.465V167.318H55.39L55.386 170.362ZM55.386 162.937V166.811H48.465V159.893H55.39L55.386 162.937ZM62.811 177.787V181.661H55.89V174.743H62.815L62.811 177.787ZM70.236 185.212V189.086H63.315V182.168H70.24L70.236 185.212ZM70.236 177.787V181.661H63.315V174.743H70.24L70.236 177.787ZM77.661 185.212V189.086H70.74V182.168H77.665L77.661 185.212ZM85.086 185.212V189.086H78.165V182.168H85.09L85.086 185.212ZM92.511 185.212V189.086H85.59V182.168H92.515L92.511 185.212Z" fill="#FEA400"/>
<path d="M85.994 189.432H86.943L92.965 178.897L92.136 178.691L85.994 189.432Z" fill="#FEA400"/>
<path d="M90.73 188.373C90.8395 188.373 90.9478 188.351 91.0489 188.309C91.15 188.267 91.2419 188.206 91.3192 188.129C91.3966 188.051 91.4579 187.959 91.4998 187.858C91.5416 187.757 91.5631 187.648 91.563 187.539C91.5629 187.43 91.5413 187.321 91.4994 187.22C91.4574 187.119 91.396 187.027 91.3185 186.95C91.2411 186.872 91.1492 186.811 91.048 186.769C90.9469 186.727 90.8385 186.706 90.729 186.706C90.5079 186.706 90.2959 186.794 90.1396 186.95C89.9833 187.106 89.8955 187.318 89.8955 187.54C89.8955 187.761 89.9833 187.973 90.1396 188.129C90.2959 188.285 90.5079 188.373 90.729 188.373H90.73Z" fill="white"/>
<path d="M32.282 96.97L31.643 96.447C31.746 96.319 34.271 93.316 39.827 93.316V94.141C34.65 94.141 32.303 96.937 32.282 96.97Z" fill="#FF6530"/>
<path d="M293.242 269.02L296.414 242.282L292.388 242.257L288.556 274.531C290.164 272.734 291.727 270.896 293.242 269.02ZM36.779 269.02L33.602 242.282L37.629 242.257L41.461 274.531C39.8566 272.732 38.2955 270.894 36.779 269.02ZM257.342 240.224L253.741 240.587C253.687 240.592 253.635 240.607 253.587 240.633C253.539 240.658 253.496 240.692 253.462 240.734C253.427 240.776 253.402 240.824 253.386 240.876C253.37 240.928 253.365 240.982 253.37 241.036C253.381 241.138 253.429 241.232 253.505 241.301C253.581 241.37 253.679 241.408 253.782 241.408H253.823L257.701 240.995C257.581 240.748 257.462 240.488 257.342 240.224ZM250.87 233.103C250.793 233.18 250.75 233.285 250.75 233.394C250.75 233.503 250.793 233.608 250.87 233.685L257.342 240.219L258.398 240.116L251.456 233.103C251.378 233.026 251.273 232.982 251.163 232.981C251.108 232.981 251.055 232.992 251.004 233.013C250.954 233.033 250.908 233.064 250.87 233.103Z" fill="#EB9AFF"/>
<path d="M292.165 244.142L292.013 245.421L296.096 244.963L296.249 243.688L292.165 244.142ZM37.876 244.142L38.028 245.421L33.944 244.963L33.796 243.688L37.876 244.142Z" fill="#7BAAF7"/>
<path d="M304.18 154.989C312.358 153.388 317.736 145.699 316.192 137.816C314.649 129.933 306.767 124.84 298.589 126.442C290.411 128.043 285.033 135.732 286.576 143.615C288.12 151.499 296.001 156.591 304.18 154.989Z" fill="#2C83FC"/>
<path d="M40.223 131.2L41.621 131.591C40.0047 129.482 37.8027 127.895 35.29 127.03C32.7773 126.164 30.0654 126.058 27.4929 126.725C24.9203 127.392 22.6013 128.802 20.8253 130.779C19.0493 132.756 17.8952 135.212 17.507 137.841C17.4989 137.895 17.5016 137.95 17.515 138.003C17.5284 138.056 17.5522 138.106 17.585 138.15C17.6176 138.194 17.6586 138.231 17.7057 138.26C17.7527 138.288 17.805 138.306 17.8593 138.314C17.9136 138.322 17.9689 138.319 18.0221 138.306C18.0753 138.292 18.1252 138.268 18.169 138.235C18.2575 138.168 18.316 138.07 18.332 137.96C18.6835 135.589 19.6982 133.367 21.2591 131.548C22.8199 129.73 24.8632 128.39 27.153 127.683C29.4429 126.976 31.886 126.931 34.2002 127.554C36.5144 128.176 38.6055 129.44 40.232 131.2H40.223Z" fill="#FEA400"/>
<path d="M73.743 283.891L72.943 283.697L85.565 231.462C85.627 231.207 85.6348 230.941 85.5879 230.683C85.5411 230.424 85.4406 230.178 85.293 229.961C85.1339 229.725 84.9279 229.525 84.6879 229.372C84.4479 229.22 84.179 229.118 83.898 229.074L21.001 218.584C20.0073 218.418 19.059 218.047 18.2163 217.494C17.3737 216.942 16.655 216.221 16.106 215.376C15.5575 214.531 15.1908 213.581 15.0293 212.587C14.8678 211.592 14.9151 210.575 15.168 209.6L18.08 198.367L18.88 198.573L15.968 209.81C15.7435 210.674 15.7014 211.576 15.8444 212.457C15.9874 213.338 16.3123 214.18 16.7986 214.929C17.2848 215.678 17.9217 216.318 18.6686 216.807C19.4156 217.296 20.2562 217.624 21.137 217.771L84.031 228.261C84.4234 228.323 84.7989 228.465 85.1343 228.678C85.4697 228.891 85.7579 229.17 85.981 229.499C86.1916 229.811 86.3345 230.164 86.4007 230.535C86.4668 230.906 86.4547 231.286 86.365 231.652L73.743 283.891Z" fill="#F7E6FF"/>
<path d="M33.227 204.468L3.20099 197.889C3.25899 198.186 3.32099 198.479 3.38299 198.776L31.098 204.848L19.61 206.889C19.5011 206.9 19.4007 206.952 19.33 207.036C19.2601 207.121 19.2263 207.229 19.236 207.339C19.2458 207.448 19.2982 207.549 19.382 207.62C19.466 207.69 19.575 207.724 19.685 207.714H19.755L30.789 205.751L25.765 208.482C25.6686 208.535 25.5968 208.623 25.565 208.728C25.5413 208.807 25.5417 208.891 25.566 208.969C25.5903 209.048 25.6375 209.117 25.7014 209.169C25.7654 209.22 25.8433 209.251 25.9252 209.258C26.0071 209.265 26.0892 209.248 26.161 209.208L33.355 205.293L41.758 203.775L39.695 203.305L33.227 204.468ZM97.808 239.732L78.132 288.036L80.986 288.222L97.808 239.732Z" fill="#EB9AFF"/>
<path d="M82.38 284.204L82.67 283.379H80.025L79.691 284.204H82.38Z" fill="#E4C2FF"/>
<path d="M114.898 189.209C114.818 188.96 114.677 188.736 114.487 188.556C114.298 188.377 114.066 188.248 113.813 188.182L107.671 186.532C107.567 186.508 107.457 186.525 107.366 186.58C107.274 186.635 107.207 186.724 107.179 186.827C107.151 186.93 107.164 187.04 107.216 187.134C107.268 187.227 107.354 187.297 107.456 187.328L113.602 188.978C113.721 189.01 113.831 189.071 113.92 189.156C114.01 189.241 114.076 189.347 114.114 189.465L114.559 190.83H115.426L114.898 189.209ZM116.601 189.074L117.187 190.831H118.053L117.381 188.81C117.346 188.708 117.272 188.624 117.176 188.575C117.079 188.527 116.968 188.518 116.865 188.55C116.813 188.566 116.765 188.593 116.723 188.629C116.682 188.664 116.648 188.708 116.624 188.757C116.575 188.856 116.567 188.969 116.601 189.074Z" fill="#FFA78B"/>
<path d="M236.363 186.38L227.857 181.293L219.153 183.414C217.792 183.745 216.49 184.284 215.292 185.01L212.561 186.66C212.03 186.982 211.614 187.464 211.375 188.037C211.136 188.61 211.084 189.245 211.229 189.849L211.464 190.822H228.653C230.898 190.841 233.082 190.09 234.841 188.694C235.653 188.03 236.309 187.275 236.363 186.38Z" fill="#936D61"/>
<path d="M215.436 189.209C215.516 188.96 215.657 188.736 215.847 188.556C216.036 188.377 216.268 188.248 216.521 188.182L222.664 186.532C222.718 186.514 222.774 186.507 222.83 186.511C222.887 186.516 222.942 186.532 222.991 186.559C223.041 186.585 223.085 186.622 223.12 186.666C223.155 186.71 223.181 186.761 223.196 186.816C223.21 186.87 223.214 186.927 223.205 186.983C223.197 187.039 223.178 187.093 223.148 187.141C223.118 187.189 223.079 187.23 223.032 187.262C222.986 187.295 222.933 187.317 222.878 187.328L216.736 188.978C216.616 189.01 216.506 189.071 216.416 189.156C216.326 189.241 216.259 189.347 216.22 189.465L215.779 190.831H214.913L215.436 189.209ZM213.732 189.074L213.147 190.831H212.28L212.953 188.81C212.968 188.756 212.994 188.705 213.029 188.661C213.064 188.617 213.107 188.581 213.157 188.555C213.207 188.528 213.261 188.513 213.317 188.508C213.373 188.503 213.429 188.51 213.483 188.528C213.536 188.546 213.585 188.575 213.627 188.613C213.668 188.65 213.702 188.696 213.725 188.747C213.749 188.798 213.761 188.854 213.762 188.91C213.764 188.966 213.753 189.022 213.732 189.074Z" fill="#734A3F"/>
<path d="M317.65 165.709L288.028 134.137L275.963 156.144C273.625 160.411 270.43 164.149 266.579 167.124C262.728 170.099 258.304 172.246 253.585 173.431L227.791 181.294C227.791 181.294 272.931 238.677 317.65 165.709Z" fill="#2C83FC"/>
<path d="M235.125 106.206L232.238 103.418C231.38 102.593 230.352 101.967 229.226 101.585C228.099 101.202 226.902 101.072 225.72 101.203L213.386 102.581C212.796 102.775 212.282 103.152 211.92 103.657C211.557 104.162 211.364 104.769 211.369 105.39V106.392L228.113 110.253C230.292 110.774 232.583 110.532 234.605 109.568H234.634C234.934 109.42 235.193 109.201 235.389 108.931C235.586 108.661 235.714 108.347 235.763 108.016C235.811 107.685 235.778 107.348 235.667 107.032C235.556 106.717 235.37 106.433 235.125 106.206Z" fill="#936D61"/>
<path d="M21.966 161.741C27.406 172.903 38.833 182.407 44.109 187.073L44.468 185.778C45.0399 183.684 45.527 181.567 45.928 179.433L21.966 161.741Z" fill="#FEA400"/>
<path d="M227.217 102.622L220.947 101.735L217.647 102.102L227.094 103.443H227.151C227.261 103.45 227.369 103.414 227.452 103.342C227.534 103.27 227.585 103.168 227.593 103.059C227.6 102.95 227.563 102.842 227.491 102.76C227.419 102.677 227.318 102.626 227.209 102.618L227.217 102.622Z" fill="#734A3F"/>
<path d="M298.18 125.499C295.949 125.923 293.835 126.818 291.978 128.125C290.122 129.432 288.566 131.12 287.414 133.077L274.849 156C272.877 159.604 270.293 162.838 267.213 165.557L266.945 165.755L268.018 165.937C271.048 163.2 273.595 159.972 275.55 156.387L287.583 134.475L287.855 133.968C288.923 131.994 290.418 130.283 292.23 128.958C294.042 127.634 296.127 126.73 298.332 126.312C301.831 125.632 305.457 126.164 308.612 127.822V126.947C305.393 125.314 301.722 124.805 298.18 125.499Z" fill="#00833B"/>
</g>
</g>
<defs>
<clipPath id="clip0_21_9">
<rect width="330" height="330" fill="white"/>
</clipPath>
</defs>
</svg>
